<svg xmlns="http://www.w3.org/2000/svg" version="1.1" xmlns:xlink="http://www.w3.org/1999/xlink" xmlns:svgjs="http://svgjs.dev/svgjs" width="1000" height="623" viewBox="0 0 1000 623"><g transform="matrix(1,0,0,1,-0.6060606060606233,0.2522267206477977)"><svg viewBox="0 0 396 247" data-background-color="#ffffff" preserveAspectRatio="xMidYMid meet" height="623" width="1000" xmlns="http://www.w3.org/2000/svg" xmlns:xlink="http://www.w3.org/1999/xlink"><g id="tight-bounds" transform="matrix(1,0,0,1,0.2400000000000091,-0.09999999999999432)"><svg viewBox="0 0 395.52 247.2" height="247.2" width="395.52"><g><svg></svg></g><g><svg viewBox="0 0 395.52 247.2" height="247.2" width="395.52"><g transform="matrix(1,0,0,1,75.54432,89.30195364599092)"><svg viewBox="0 0 244.43135999999998 68.59609270801816" height="68.59609270801816" width="244.43135999999998"><g><svg viewBox="0 0 244.43135999999998 68.59609270801816" height="68.59609270801816" width="244.43135999999998"><g><svg viewBox="0 0 244.43135999999998 68.59609270801816" height="68.59609270801816" width="244.43135999999998"><g><svg viewBox="0 0 244.43135999999998 68.59609270801816" height="68.59609270801816" width="244.43135999999998"><g id="textblocktransform"><svg viewBox="0 0 244.43135999999998 68.59609270801816" height="68.59609270801816" width="244.43135999999998" id="textblock"><g><svg viewBox="0 0 244.43135999999998 68.59609270801816" height="68.59609270801816" width="244.43135999999998"><g transform="matrix(1,0,0,1,0,0)"><svg width="244.43135999999998" viewBox="3.950000047683716 -36.29999923706055 132.19000244140625 37.099998474121094" height="68.59609270801816" data-palette-color="#ff851b"><path d="M27.05 0L23.1 0 14.45-15.05 7.7-15.05 7.7 0 3.95 0 3.95-34.1 15.35-34.1Q18.45-34.1 20.8-32.9 23.15-31.7 24.4-29.53 25.65-27.35 25.65-24.55L25.65-24.55Q25.65-21.15 23.6-18.73 21.55-16.3 18.15-15.45L18.15-15.45 27.05 0ZM7.7-31L7.7-18.15 14.85-18.15Q18.15-18.15 19.93-19.9 21.7-21.65 21.7-24.55L21.7-24.55Q21.7-27.45 19.93-29.23 18.15-31 14.85-31L14.85-31 7.7-31ZM42.25-24.2Q45.4-24.2 47.95-22.65 50.5-21.1 51.95-18.43 53.4-15.75 53.4-12.45L53.4-12.45Q53.4-11.5 53.35-11L53.35-11 34.1-11Q34.3-7.4 36.45-4.85 38.6-2.3 42.3-2.3L42.3-2.3Q45.3-2.3 47.27-3.43 49.25-4.55 50.45-6.55L50.45-6.55 53.15-4.75Q51.5-2.15 48.8-0.68 46.1 0.8 42.4 0.8L42.4 0.8Q39 0.8 36.35-0.8 33.7-2.4 32.2-5.25 30.7-8.1 30.7-11.7L30.7-11.7Q30.7-15.3 32.17-18.15 33.65-21 36.27-22.6 38.9-24.2 42.25-24.2L42.25-24.2ZM34.3-13.8L50-13.8Q49.5-17.45 47.55-19.28 45.6-21.1 42.25-21.1L42.25-21.1Q39-21.1 36.92-19.03 34.85-16.95 34.3-13.8L34.3-13.8ZM76.75-36.3L80.15-36.3 80.15 0 76.75 0 76.75-3.45Q75.3-1.45 73.2-0.33 71.09 0.8 68.59 0.8L68.59 0.8Q65.25 0.8 62.6-0.8 59.95-2.4 58.45-5.25 56.95-8.1 56.95-11.75L56.95-11.75Q56.95-15.35 58.42-18.18 59.9-21 62.52-22.6 65.15-24.2 68.5-24.2L68.5-24.2Q71.05-24.2 73.17-23.08 75.3-21.95 76.75-19.9L76.75-19.9 76.75-36.3ZM68.5-2.3Q70.9-2.3 72.77-3.5 74.65-4.7 75.7-6.85 76.75-9 76.75-11.7L76.75-11.7Q76.75-14.4 75.7-16.55 74.65-18.7 72.77-19.9 70.9-21.1 68.5-21.1L68.5-21.1Q66.15-21.1 64.3-19.9 62.45-18.7 61.4-16.57 60.35-14.45 60.35-11.75L60.35-11.75Q60.35-9 61.4-6.85 62.45-4.7 64.3-3.5 66.15-2.3 68.5-2.3L68.5-2.3ZM91.69 0L88.29 0 88.29-23.4 91.69-23.4 91.69 0ZM89.99-27.95Q88.84-27.95 88.07-28.75 87.29-29.55 87.29-30.7L87.29-30.7Q87.29-31.8 88.07-32.58 88.84-33.35 89.99-33.35L89.99-33.35Q91.09-33.35 91.89-32.58 92.69-31.8 92.69-30.65L92.69-30.65Q92.69-29.55 91.89-28.75 91.09-27.95 89.99-27.95L89.99-27.95ZM109.94-24.2Q113.09-24.2 115.64-22.65 118.19-21.1 119.64-18.43 121.09-15.75 121.09-12.45L121.09-12.45Q121.09-11.5 121.04-11L121.04-11 101.79-11Q101.99-7.4 104.14-4.85 106.29-2.3 109.99-2.3L109.99-2.3Q112.99-2.3 114.97-3.43 116.94-4.55 118.14-6.55L118.14-6.55 120.84-4.75Q119.19-2.15 116.49-0.68 113.79 0.8 110.09 0.8L110.09 0.8Q106.69 0.8 104.04-0.8 101.39-2.4 99.89-5.25 98.39-8.1 98.39-11.7L98.39-11.7Q98.39-15.3 99.87-18.15 101.34-21 103.97-22.6 106.59-24.2 109.94-24.2L109.94-24.2ZM101.99-13.8L117.69-13.8Q117.19-17.45 115.24-19.28 113.29-21.1 109.94-21.1L109.94-21.1Q106.69-21.1 104.62-19.03 102.54-16.95 101.99-13.8L101.99-13.8ZM130.74 0L127.34 0 127.34-20.3 123.34-20.3 123.34-23.4 127.34-23.4 127.34-31.15 130.74-31.15 130.74-23.4 136.14-23.4 136.14-20.3 130.74-20.3 130.74 0Z" opacity="1" transform="matrix(1,0,0,1,0,0)" fill="#ff851b" class="wordmark-text-0" data-fill-palette-color="primary" id="text-0"></path></svg></g></svg></g></svg></g></svg></g></svg></g></svg></g></svg></g><g><path d="M245.816 0c68.262 0 123.6 55.338 123.6 123.6 0 68.262-55.338 123.6-123.6 123.6-53.369 0-98.837-33.824-116.138-81.205h3.299c17.155 45.638 61.204 78.112 112.839 78.112 66.554 0 120.507-53.953 120.507-120.507 0-66.554-53.953-120.507-120.507-120.507-51.634 0-95.683 32.474-112.839 78.112h-3.299c17.3-47.381 62.769-81.205 116.138-81.205z" fill="#ff851b" stroke="transparent" data-fill-palette-color="tertiary"></path></g></svg></g><defs></defs></svg><rect width="395.52" height="247.2" fill="none" stroke="none" visibility="hidden"></rect></g></svg></g></svg>